<?xml version="1.0" encoding="iso-8859-1"?>
<!-- Generator: Adobe Illustrator 17.1.0, SVG Export Plug-In . SVG Version: 6.00 Build 0)  -->
<!DOCTYPE svg PUBLIC "-//W3C//DTD SVG 1.1//EN" "http://www.w3.org/Graphics/SVG/1.1/DTD/svg11.dtd">
<svg version="1.1" id="Capa_1" xmlns="http://www.w3.org/2000/svg" xmlns:xlink="http://www.w3.org/1999/xlink" x="0px" y="0px" fill="#611313"
	 viewBox="0 0 465 465" style="enable-background:new 0 0 465 465;" xml:space="preserve">
<g>
	<path d="M464.907,402.456L410.614,60.194c-0.002-0.013-0.006-0.024-0.008-0.037c-0.017-0.104-0.043-0.204-0.065-0.307
		c-0.032-0.157-0.063-0.314-0.105-0.468c-0.024-0.087-0.055-0.172-0.082-0.258c-0.052-0.167-0.105-0.333-0.168-0.494
		c-0.03-0.074-0.064-0.147-0.096-0.222c-0.072-0.168-0.147-0.335-0.231-0.495c-0.036-0.069-0.076-0.137-0.114-0.205
		c-0.09-0.161-0.184-0.319-0.286-0.473c-0.043-0.066-0.089-0.131-0.135-0.195c-0.107-0.151-0.219-0.298-0.336-0.439
		c-0.027-0.033-0.05-0.069-0.078-0.103c-0.024-0.028-0.052-0.052-0.076-0.08c-0.125-0.142-0.256-0.277-0.39-0.409
		c-0.052-0.051-0.102-0.102-0.155-0.15c-0.152-0.141-0.311-0.272-0.473-0.399c-0.04-0.031-0.078-0.064-0.118-0.095
		c-0.839-0.629-1.807-1.079-2.848-1.313c-0.033-0.007-0.067-0.013-0.1-0.02c-0.219-0.046-0.439-0.083-0.663-0.109
		c-0.059-0.007-0.119-0.011-0.179-0.017c-0.195-0.018-0.39-0.029-0.588-0.032c-0.038,0-0.076-0.006-0.114-0.006H61.793
		c-3.688,0-6.829,2.682-7.407,6.325L0.093,402.456c-0.344,2.167,0.278,4.376,1.703,6.045c1.426,1.669,3.51,2.63,5.704,2.63h341.414
		c3.688,0,6.829-2.682,7.407-6.325l46.886-295.566l45.51,286.892h-71.205c-4.143,0-7.5,3.357-7.5,7.5s3.357,7.5,7.5,7.5H457.5
		c2.194,0,4.278-0.961,5.703-2.63C464.629,406.832,465.251,404.623,464.907,402.456z M342.51,396.131H16.283l35.28-222.403H377.79
		L342.51,396.131z M380.169,158.727H53.943l14.254-89.858h326.227L380.169,158.727z"/>
	<path d="M119.246,121.299H329.12c4.143,0,7.5-3.357,7.5-7.5s-3.357-7.5-7.5-7.5H119.246c-4.143,0-7.5,3.357-7.5,7.5
		S115.103,121.299,119.246,121.299z"/>
	<path d="M131.626,223.619h-30.991c-4.143,0-7.5,3.357-7.5,7.5s3.357,7.5,7.5,7.5h30.991c4.143,0,7.5-3.357,7.5-7.5
		S135.768,223.619,131.626,223.619z"/>
	<path d="M221.068,223.619h-30.991c-4.143,0-7.5,3.357-7.5,7.5s3.357,7.5,7.5,7.5h30.991c4.143,0,7.5-3.357,7.5-7.5
		S225.211,223.619,221.068,223.619z"/>
	<path d="M310.51,223.619h-30.991c-4.143,0-7.5,3.357-7.5,7.5s3.357,7.5,7.5,7.5h30.991c4.143,0,7.5-3.357,7.5-7.5
		S314.652,223.619,310.51,223.619z"/>
	<path d="M123.091,277.43H92.099c-4.143,0-7.5,3.357-7.5,7.5s3.357,7.5,7.5,7.5h30.992c4.143,0,7.5-3.357,7.5-7.5
		S127.233,277.43,123.091,277.43z"/>
	<path d="M212.532,277.43h-30.991c-4.143,0-7.5,3.357-7.5,7.5s3.357,7.5,7.5,7.5h30.991c4.143,0,7.5-3.357,7.5-7.5
		S216.675,277.43,212.532,277.43z"/>
	<path d="M301.974,277.43h-30.991c-4.143,0-7.5,3.357-7.5,7.5s3.357,7.5,7.5,7.5h30.991c4.143,0,7.5-3.357,7.5-7.5
		S306.116,277.43,301.974,277.43z"/>
	<path d="M114.555,331.239H83.563c-4.143,0-7.5,3.357-7.5,7.5s3.357,7.5,7.5,7.5h30.991c4.143,0,7.5-3.357,7.5-7.5
		S118.697,331.239,114.555,331.239z"/>
	<path d="M203.996,331.239h-30.991c-4.143,0-7.5,3.357-7.5,7.5s3.357,7.5,7.5,7.5h30.991c4.143,0,7.5-3.357,7.5-7.5
		S208.139,331.239,203.996,331.239z"/>
	<path d="M293.438,331.239h-30.992c-4.143,0-7.5,3.357-7.5,7.5s3.357,7.5,7.5,7.5h30.992c4.143,0,7.5-3.357,7.5-7.5
		S297.581,331.239,293.438,331.239z"/>
</g>
<g>
</g>
<g>
</g>
<g>
</g>
<g>
</g>
<g>
</g>
<g>
</g>
<g>
</g>
<g>
</g>
<g>
</g>
<g>
</g>
<g>
</g>
<g>
</g>
<g>
</g>
<g>
</g>
<g>
</g>
</svg>
